<mxfile host="app.diagrams.net" modified="2021-06-17T07:16:41.675Z" agent="5.0 (Windows NT 10.0; Win64; x64) AppleWebKit/537.36 (KHTML, like Gecko) Chrome/91.0.4472.77 Safari/537.36" etag="OANoOdHw7kRVHAwAuccX" version="14.7.8" type="github">
  <diagram id="6a731a19-8d31-9384-78a2-239565b7b9f0" name="Page-1">
    <mxGraphModel dx="1422" dy="882" grid="1" gridSize="10" guides="1" tooltips="1" connect="1" arrows="1" fold="1" page="1" pageScale="1" pageWidth="1169" pageHeight="827" background="none" math="0" shadow="0">
      <root>
        <mxCell id="0" />
        <mxCell id="1" parent="0" />
        <mxCell id="2" value="开始" style="shape=mxgraph.flowchart.terminator;strokeWidth=2;gradientColor=none;gradientDirection=north;fontStyle=0;html=1;" parent="1" vertex="1">
          <mxGeometry x="260" y="60" width="120" height="30" as="geometry" />
        </mxCell>
        <mxCell id="4" value="PB转换JSON" style="rounded=1;whiteSpace=wrap;html=1;absoluteArcSize=1;arcSize=14;strokeWidth=2;fillColor=#1681B5;fontColor=#FFFFFF;strokeColor=#10739E;" parent="1" vertex="1">
          <mxGeometry x="240.5" y="670" width="159" height="80" as="geometry" />
        </mxCell>
        <mxCell id="5" value="获取透传+编码方式" style="shape=mxgraph.flowchart.data;strokeWidth=2;gradientDirection=north;fontStyle=0;html=1;strokeColor=#10739e;fillColor=#1681B5;fontColor=#FFFFFF;" parent="1" vertex="1">
          <mxGeometry x="239.5" y="250" width="159" height="80" as="geometry" />
        </mxCell>
        <mxCell id="6" value="数据合法性校验" style="shape=mxgraph.flowchart.decision;strokeWidth=2;gradientDirection=north;fontStyle=0;html=1;strokeColor=#d6b656;fillColor=#fff2cc;" parent="1" vertex="1">
          <mxGeometry x="271" y="390" width="98" height="57" as="geometry" />
        </mxCell>
        <mxCell id="7" style="fontStyle=1;strokeColor=#003366;strokeWidth=1;html=1;" parent="1" source="2" edge="1">
          <mxGeometry relative="1" as="geometry">
            <mxPoint x="320" y="130" as="targetPoint" />
          </mxGeometry>
        </mxCell>
        <mxCell id="9" style="entryX=0.5;entryY=0;entryPerimeter=0;fontStyle=1;strokeColor=#003366;strokeWidth=1;html=1;" parent="1" source="5" target="6" edge="1">
          <mxGeometry relative="1" as="geometry" />
        </mxCell>
        <mxCell id="10" value="" style="edgeStyle=elbowEdgeStyle;elbow=horizontal;exitX=1;exitY=0.5;exitPerimeter=0;fontStyle=1;strokeColor=#003366;strokeWidth=1;html=1;entryX=1;entryY=0.5;entryDx=0;entryDy=0;" parent="1" source="6" target="VklB-e8Y3t3cmcgqewh2-28" edge="1">
          <mxGeometry x="381" y="28.5" width="100" height="100" as="geometry">
            <mxPoint x="750" y="447" as="sourcePoint" />
            <mxPoint x="600" y="980" as="targetPoint" />
            <Array as="points">
              <mxPoint x="700" y="970" />
              <mxPoint x="730" y="960" />
              <mxPoint x="660" y="970" />
              <mxPoint x="750" y="820" />
              <mxPoint x="490" y="970" />
              <mxPoint x="720" y="820" />
            </Array>
          </mxGeometry>
        </mxCell>
        <mxCell id="VklB-e8Y3t3cmcgqewh2-35" value="no" style="edgeLabel;html=1;align=center;verticalAlign=middle;resizable=0;points=[];" vertex="1" connectable="0" parent="10">
          <mxGeometry relative="1" as="geometry">
            <mxPoint x="-220" y="-259" as="offset" />
          </mxGeometry>
        </mxCell>
        <mxCell id="12" value="yes" style="edgeStyle=elbowEdgeStyle;elbow=horizontal;fontColor=#001933;fontStyle=1;strokeColor=#003366;strokeWidth=1;html=1;" parent="1" source="6" edge="1">
          <mxGeometry width="100" height="100" as="geometry">
            <mxPoint y="100" as="sourcePoint" />
            <mxPoint x="320" y="519" as="targetPoint" />
          </mxGeometry>
        </mxCell>
        <mxCell id="15" value="联投广告位需要后续&lt;br&gt;考虑拆解" style="shape=mxgraph.flowchart.document;strokeWidth=2;gradientDirection=north;fontStyle=0;html=1;fillColor=#b1ddf0;strokeColor=#10739e;" parent="1" vertex="1">
          <mxGeometry x="480" y="675" width="140" height="70" as="geometry" />
        </mxCell>
        <mxCell id="16" value="" style="edgeStyle=elbowEdgeStyle;elbow=horizontal;fontStyle=1;strokeColor=#003366;strokeWidth=1;html=1;exitX=1;exitY=0.5;exitDx=0;exitDy=0;" parent="1" target="15" edge="1" source="4">
          <mxGeometry y="160" width="100" height="100" as="geometry">
            <mxPoint x="420" y="710" as="sourcePoint" />
            <mxPoint x="100" y="160" as="targetPoint" />
          </mxGeometry>
        </mxCell>
        <mxCell id="17" value="" style="edgeStyle=elbowEdgeStyle;elbow=horizontal;fontStyle=1;strokeColor=#003366;strokeWidth=1;html=1;entryX=0.5;entryY=0;entryDx=0;entryDy=0;entryPerimeter=0;" parent="1" source="4" target="VklB-e8Y3t3cmcgqewh2-36" edge="1">
          <mxGeometry y="200" width="100" height="100" as="geometry">
            <mxPoint y="300" as="sourcePoint" />
            <mxPoint x="320" y="840" as="targetPoint" />
          </mxGeometry>
        </mxCell>
        <mxCell id="21" value="yes" style="edgeStyle=elbowEdgeStyle;elbow=horizontal;fontStyle=1;strokeColor=#003366;strokeWidth=1;html=1;entryX=0.5;entryY=0;entryDx=0;entryDy=0;" parent="1" edge="1">
          <mxGeometry y="200" width="100" height="100" as="geometry">
            <mxPoint x="320" y="910" as="sourcePoint" />
            <mxPoint x="320" y="1000" as="targetPoint" />
          </mxGeometry>
        </mxCell>
        <mxCell id="25" value="" style="edgeStyle=elbowEdgeStyle;elbow=horizontal;exitX=0.5;exitY=1;fontStyle=1;strokeColor=#003366;strokeWidth=1;html=1;exitDx=0;exitDy=0;entryX=0.5;entryY=0;entryDx=0;entryDy=0;entryPerimeter=0;" parent="1" source="noWKgFkb6oJTjKW2lA6C-78" edge="1" target="noWKgFkb6oJTjKW2lA6C-72">
          <mxGeometry x="-15" y="199" width="100" height="100" as="geometry">
            <mxPoint x="320" y="1080" as="sourcePoint" />
            <mxPoint x="320" y="1160" as="targetPoint" />
          </mxGeometry>
        </mxCell>
        <mxCell id="noWKgFkb6oJTjKW2lA6C-72" value="结束" style="shape=mxgraph.flowchart.terminator;strokeWidth=2;gradientColor=none;gradientDirection=north;fontStyle=0;html=1;" parent="1" vertex="1">
          <mxGeometry x="260" y="1310" width="120" height="30" as="geometry" />
        </mxCell>
        <mxCell id="VklB-e8Y3t3cmcgqewh2-39" style="edgeStyle=elbowEdgeStyle;rounded=1;orthogonalLoop=1;jettySize=auto;html=1;" edge="1" parent="1" source="noWKgFkb6oJTjKW2lA6C-77" target="noWKgFkb6oJTjKW2lA6C-78">
          <mxGeometry relative="1" as="geometry" />
        </mxCell>
        <mxCell id="noWKgFkb6oJTjKW2lA6C-77" value="风控/去重并计费" style="rounded=1;whiteSpace=wrap;html=1;absoluteArcSize=1;arcSize=14;strokeWidth=2;fillColor=#1681B5;fontColor=#FFFFFF;strokeColor=#10739E;" parent="1" vertex="1">
          <mxGeometry x="240.5" y="1000" width="159" height="80" as="geometry" />
        </mxCell>
        <mxCell id="noWKgFkb6oJTjKW2lA6C-79" value="获取PB模板" style="shape=mxgraph.flowchart.document;strokeWidth=2;gradientDirection=north;fontStyle=0;html=1;strokeColor=#82b366;fillColor=#d5e8d4;" parent="1" vertex="1">
          <mxGeometry x="479.5" y="675" width="140" height="70" as="geometry" />
        </mxCell>
        <mxCell id="O3qQAeO-0DIFtZuH8M05-53" value="" style="edgeStyle=orthogonalEdgeStyle;rounded=0;orthogonalLoop=1;jettySize=auto;html=1;exitX=0.5;exitY=1;exitDx=0;exitDy=0;" parent="1" source="O3qQAeO-0DIFtZuH8M05-52" target="5" edge="1">
          <mxGeometry relative="1" as="geometry">
            <mxPoint x="320" y="225" as="sourcePoint" />
          </mxGeometry>
        </mxCell>
        <mxCell id="O3qQAeO-0DIFtZuH8M05-52" value="&lt;span&gt;服务端接收点击/曝光链接&lt;/span&gt;" style="rounded=1;whiteSpace=wrap;html=1;absoluteArcSize=1;arcSize=14;strokeWidth=2;fillColor=#1681B5;fontColor=#FFFFFF;strokeColor=#10739E;" parent="1" vertex="1">
          <mxGeometry x="269" y="130" width="100" height="70" as="geometry" />
        </mxCell>
        <mxCell id="noWKgFkb6oJTjKW2lA6C-78" value="数据上报伏羲" style="rounded=1;whiteSpace=wrap;html=1;absoluteArcSize=1;arcSize=14;strokeWidth=2;fillColor=#1681B5;fontColor=#FFFFFF;strokeColor=#10739E;" parent="1" vertex="1">
          <mxGeometry x="239.5" y="1161" width="159" height="80" as="geometry" />
        </mxCell>
        <mxCell id="O3qQAeO-0DIFtZuH8M05-56" value="统一计费请求对象" style="shape=mxgraph.flowchart.document;strokeWidth=2;gradientDirection=north;fontStyle=0;html=1;strokeColor=#82b366;fillColor=#d5e8d4;" parent="1" vertex="1">
          <mxGeometry x="480.5" y="1010" width="140" height="70" as="geometry" />
        </mxCell>
        <mxCell id="O3qQAeO-0DIFtZuH8M05-58" value="" style="edgeStyle=elbowEdgeStyle;elbow=horizontal;fontStyle=1;strokeColor=#003366;strokeWidth=1;html=1;exitX=1;exitY=0.5;exitDx=0;exitDy=0;" parent="1" edge="1" source="noWKgFkb6oJTjKW2lA6C-77">
          <mxGeometry x="-1" y="379.5" width="100" height="100" as="geometry">
            <mxPoint x="399" y="929.5" as="sourcePoint" />
            <mxPoint x="479" y="1040" as="targetPoint" />
            <Array as="points">
              <mxPoint x="439" y="1219.5" />
            </Array>
          </mxGeometry>
        </mxCell>
        <mxCell id="VklB-e8Y3t3cmcgqewh2-25" value="1. http get参数获取&lt;br&gt;2. 对称加密上报数据&lt;br&gt;3. 编码方式:pb/json" style="shape=mxgraph.flowchart.document;strokeWidth=2;gradientDirection=north;fontStyle=0;html=1;strokeColor=#82b366;fillColor=#d5e8d4;align=left;" vertex="1" parent="1">
          <mxGeometry x="480" y="255" width="140" height="70" as="geometry" />
        </mxCell>
        <mxCell id="VklB-e8Y3t3cmcgqewh2-27" value="" style="edgeStyle=elbowEdgeStyle;elbow=horizontal;fontStyle=1;strokeColor=#003366;strokeWidth=1;html=1;entryX=0;entryY=0.5;entryDx=0;entryDy=0;entryPerimeter=0;" edge="1" parent="1" target="VklB-e8Y3t3cmcgqewh2-25">
          <mxGeometry x="-20" y="-260.5" width="100" height="100" as="geometry">
            <mxPoint x="380" y="289.5" as="sourcePoint" />
            <mxPoint x="460" y="289.5" as="targetPoint" />
          </mxGeometry>
        </mxCell>
        <mxCell id="VklB-e8Y3t3cmcgqewh2-29" style="edgeStyle=orthogonalEdgeStyle;rounded=0;orthogonalLoop=1;jettySize=auto;html=1;entryX=1;entryY=0.5;entryDx=0;entryDy=0;entryPerimeter=0;" edge="1" parent="1" source="VklB-e8Y3t3cmcgqewh2-28" target="noWKgFkb6oJTjKW2lA6C-72">
          <mxGeometry relative="1" as="geometry" />
        </mxCell>
        <mxCell id="VklB-e8Y3t3cmcgqewh2-28" value="数据异常告警&lt;br&gt;类型如下:&lt;br&gt;1. 参数缺失&lt;br&gt;2. 解密异常" style="rounded=1;whiteSpace=wrap;html=1;absoluteArcSize=1;arcSize=14;strokeWidth=2;fillColor=#1681B5;fontColor=#FFFFFF;strokeColor=#10739E;" vertex="1" parent="1">
          <mxGeometry x="500.5" y="1290" width="100" height="70" as="geometry" />
        </mxCell>
        <mxCell id="VklB-e8Y3t3cmcgqewh2-31" value="yes" style="edgeStyle=orthogonalEdgeStyle;rounded=0;orthogonalLoop=1;jettySize=auto;html=1;" edge="1" parent="1" source="VklB-e8Y3t3cmcgqewh2-30" target="4">
          <mxGeometry relative="1" as="geometry" />
        </mxCell>
        <mxCell id="VklB-e8Y3t3cmcgqewh2-33" style="edgeStyle=elbowEdgeStyle;orthogonalLoop=1;jettySize=auto;html=1;rounded=1;entryX=0.5;entryY=0;entryDx=0;entryDy=0;entryPerimeter=0;" edge="1" parent="1" source="VklB-e8Y3t3cmcgqewh2-30" target="VklB-e8Y3t3cmcgqewh2-36">
          <mxGeometry relative="1" as="geometry">
            <mxPoint x="271" y="820" as="targetPoint" />
            <Array as="points">
              <mxPoint x="110" y="720" />
            </Array>
          </mxGeometry>
        </mxCell>
        <mxCell id="VklB-e8Y3t3cmcgqewh2-34" value="no" style="edgeLabel;html=1;align=center;verticalAlign=middle;resizable=0;points=[];" vertex="1" connectable="0" parent="VklB-e8Y3t3cmcgqewh2-33">
          <mxGeometry x="-0.0464" y="-2" relative="1" as="geometry">
            <mxPoint y="1" as="offset" />
          </mxGeometry>
        </mxCell>
        <mxCell id="VklB-e8Y3t3cmcgqewh2-30" value="编码方式:PB" style="shape=mxgraph.flowchart.decision;strokeWidth=2;gradientDirection=north;fontStyle=0;html=1;strokeColor=#d6b656;fillColor=#fff2cc;" vertex="1" parent="1">
          <mxGeometry x="271" y="520" width="98" height="57" as="geometry" />
        </mxCell>
        <mxCell id="VklB-e8Y3t3cmcgqewh2-37" style="edgeStyle=elbowEdgeStyle;rounded=1;orthogonalLoop=1;jettySize=auto;html=1;" edge="1" parent="1" source="VklB-e8Y3t3cmcgqewh2-36" target="noWKgFkb6oJTjKW2lA6C-78">
          <mxGeometry relative="1" as="geometry">
            <Array as="points">
              <mxPoint x="140" y="1040" />
            </Array>
          </mxGeometry>
        </mxCell>
        <mxCell id="VklB-e8Y3t3cmcgqewh2-38" value="no" style="edgeLabel;html=1;align=center;verticalAlign=middle;resizable=0;points=[];" vertex="1" connectable="0" parent="VklB-e8Y3t3cmcgqewh2-37">
          <mxGeometry x="-0.1442" y="2" relative="1" as="geometry">
            <mxPoint y="1" as="offset" />
          </mxGeometry>
        </mxCell>
        <mxCell id="VklB-e8Y3t3cmcgqewh2-36" value="是否计费&lt;br&gt;(命中实验)" style="shape=mxgraph.flowchart.decision;strokeWidth=2;gradientDirection=north;fontStyle=0;html=1;strokeColor=#d6b656;fillColor=#fff2cc;" vertex="1" parent="1">
          <mxGeometry x="269" y="860" width="98" height="57" as="geometry" />
        </mxCell>
      </root>
    </mxGraphModel>
  </diagram>
</mxfile>
